<?xml version="1.0" encoding="UTF-8"?>
<svg xmlns="http://www.w3.org/2000/svg" xmlns:xlink="http://www.w3.org/1999/xlink" width="139px" height="32px" viewBox="0 0 139 32" version="1.1">
<g id="surface1">
<path style=" stroke:none;fill-rule:nonzero;fill:rgb(100%,100%,100%);fill-opacity:1;" d="M 44.5 11.898438 C 43.800781 11.898438 43.199219 11.898438 42.601562 11.898438 C 42 11.898438 41.5 12.101562 41.300781 12.699219 C 41 13.398438 40.699219 14 40.398438 14.699219 C 40 15.699219 39.601562 16.601562 39.199219 17.601562 C 38.800781 18.601562 38.398438 19.398438 38.101562 20.398438 C 37.800781 21 37.601562 21.699219 37.300781 22.199219 C 37.300781 22.300781 37.199219 22.300781 37.101562 22.300781 C 36.300781 22.300781 35.601562 22.300781 34.800781 22.300781 C 34.699219 22.300781 34.699219 22.300781 34.699219 22.300781 L 34.601562 22.199219 C 33.898438 20.800781 33.199219 19.300781 32.5 18 C 31.601562 16.300781 30.800781 14.5 29.898438 12.699219 C 29.800781 12.199219 29.398438 12 29 12 C 28.5 12 28.199219 12.101562 27.898438 12.5 C 27.5 13.199219 27.101562 13.800781 26.800781 14.5 C 26.5 15.101562 26.199219 15.800781 25.898438 16.300781 C 25.101562 17.800781 24.5 19.300781 23.699219 20.800781 C 23.5 21.300781 23.199219 21.699219 23 22.101562 C 22.898438 22.199219 22.800781 22.199219 22.699219 22.199219 C 21.800781 22.199219 21.101562 22.199219 20.199219 22.199219 C 19.199219 22.199219 18.300781 22.199219 17.300781 22.199219 C 19.699219 27.800781 25.398438 31.699219 31.800781 31.699219 C 40.601562 31.699219 47.699219 24.601562 47.699219 15.800781 C 47.699219 14.398438 47.5 13 47.101562 11.800781 C 46.300781 11.898438 45.300781 11.898438 44.5 11.898438 Z M 25.601562 22.300781 C 26.699219 20.199219 27.699219 18.199219 28.800781 16 C 29.898438 18.101562 30.898438 20.101562 32 22.300781 C 29.800781 22.300781 27.699219 22.300781 25.601562 22.300781 Z M 25.601562 22.300781 "/>
<path style=" stroke:none;fill-rule:nonzero;fill:rgb(100%,100%,100%);fill-opacity:1;" d="M 21.101562 20.398438 C 21.300781 20.398438 21.300781 20.300781 21.398438 20.199219 C 22.398438 18.300781 23.199219 16.300781 24.199219 14.398438 C 24.699219 13.5 25.101562 12.699219 25.5 11.699219 C 25.601562 11.601562 25.601562 11.5 25.699219 11.398438 C 26.300781 10.5 27 10 28.101562 9.699219 C 29 9.5 29.800781 9.601562 30.601562 10 C 31.398438 10.398438 31.898438 11 32.199219 11.699219 C 32.800781 12.898438 33.398438 13.898438 33.800781 15.101562 C 34.5 16.398438 35.101562 17.800781 35.699219 19.101562 C 35.699219 19.199219 35.800781 19.199219 35.800781 19.300781 L 38.398438 12.898438 L 38.5 12.699219 C 38.601562 12.398438 38.800781 12.101562 38.898438 11.800781 C 39.398438 10.699219 40.199219 10.101562 41.300781 9.800781 C 41.800781 9.699219 42.199219 9.601562 42.601562 9.699219 C 43.898438 9.699219 45 9.699219 46.300781 9.699219 C 44 4.101562 38.398438 0.199219 32 0.199219 C 23.199219 0.199219 16.101562 7.300781 16.101562 16.101562 C 16.101562 17.5 16.300781 19.101562 16.699219 20.398438 C 18.199219 20.398438 19.601562 20.398438 21.101562 20.398438 Z M 21.101562 20.398438 "/>
<path style=" stroke:none;fill-rule:nonzero;fill:rgb(100%,100%,100%);fill-opacity:1;" d="M 68.398438 16.699219 C 68.699219 16.199219 68.898438 15.699219 69.199219 15.300781 C 69.601562 14.398438 70.101562 13.601562 70.5 12.699219 C 70.699219 12.199219 71.199219 12 71.699219 12.101562 C 72.199219 12.199219 72.5 12.699219 72.5 13.300781 C 72.5 14.800781 72.5 16.5 72.5 18 C 72.5 18.398438 72.5 18.800781 72.5 19.199219 C 72.5 19.800781 71.800781 20.199219 71.398438 20.101562 C 70.898438 20 70.5 19.601562 70.5 19 C 70.5 18.5 70.5 18 70.5 17.601562 C 70.5 17.601562 70.5 17.601562 70.398438 17.601562 C 70.300781 17.699219 70.300781 17.699219 70.199219 17.800781 C 69.898438 18.398438 69.601562 18.898438 69.398438 19.398438 C 69.199219 19.800781 68.898438 20.101562 68.398438 20.101562 C 67.898438 20.101562 67.601562 19.800781 67.5 19.398438 C 67.199219 18.800781 67 18.300781 66.699219 17.898438 C 66.601562 17.800781 66.601562 17.699219 66.5 17.601562 L 66.398438 17.601562 C 66.398438 17.699219 66.398438 17.800781 66.398438 17.898438 C 66.398438 18.300781 66.398438 18.699219 66.398438 19.199219 C 66.398438 19.800781 65.898438 20.199219 65.398438 20.199219 C 64.898438 20.199219 64.398438 19.699219 64.398438 19.199219 C 64.398438 17.199219 64.398438 15.199219 64.398438 13.101562 C 64.398438 12.601562 64.800781 12.199219 65.199219 12.101562 C 65.601562 12 66.101562 12.199219 66.300781 12.601562 C 67 13.898438 67.601562 15.199219 68.199219 16.5 C 68.300781 16.601562 68.300781 16.601562 68.398438 16.699219 Z M 68.398438 16.699219 "/>
<path style=" stroke:none;fill-rule:nonzero;fill:rgb(100%,100%,100%);fill-opacity:1;" d="M 94.800781 17.101562 C 95.199219 17.398438 95.5 17.601562 95.800781 17.800781 C 96 18 96.300781 18.101562 96.5 18.300781 C 97 18.699219 97.101562 19.300781 96.800781 19.601562 C 96.5 20.101562 95.898438 20.199219 95.5 19.800781 C 94.199219 18.898438 92.800781 18.101562 91.5 17.101562 C 91.300781 17 91.199219 17 91 16.898438 C 91 17.101562 91 17.199219 91 17.300781 C 91 17.898438 91 18.398438 91 18.898438 C 91 19.398438 90.601562 20 90 20 C 89.398438 20 89 19.601562 89 18.898438 C 89 17.898438 89 17 89 15.898438 C 89 15.199219 89.398438 14.800781 90.101562 14.800781 C 91.5 14.800781 93 14.800781 94.398438 14.800781 C 94.800781 14.800781 95 14.699219 95 14.398438 C 95.101562 14 94.898438 13.800781 94.5 13.800781 C 93.898438 13.800781 93.300781 13.800781 92.800781 13.800781 C 91.898438 13.800781 91.101562 13.800781 90.199219 13.800781 C 89.601562 13.800781 89.101562 13.199219 89.101562 12.800781 C 89.101562 12.199219 89.601562 11.800781 90.199219 11.800781 C 91.601562 11.800781 93.199219 11.800781 94.601562 11.800781 C 95.699219 11.800781 96.5 12.5 96.898438 13.5 C 97.199219 14.398438 97 15.398438 96.199219 16.101562 C 95.898438 16.398438 95.5 16.5 95.199219 16.699219 "/>
<path style=" stroke:none;fill-rule:nonzero;fill:rgb(100%,100%,100%);fill-opacity:1;" d="M 54.300781 16 C 54.300781 15.800781 54.300781 15.699219 54.300781 15.601562 C 54.300781 14.699219 54.300781 14 54.300781 13.101562 C 54.300781 12.5 54.699219 12 55.300781 12 C 55.898438 12 56.300781 12.398438 56.300781 13 C 56.300781 15 56.300781 16.898438 56.300781 19 C 56.300781 19.5 56 19.898438 55.601562 20 C 55.199219 20.101562 54.699219 19.898438 54.398438 19.5 C 53.601562 18.398438 52.800781 17.398438 52 16.300781 C 51.898438 16.199219 51.898438 16.199219 51.800781 16.101562 C 51.800781 16.199219 51.800781 16.300781 51.800781 16.398438 C 51.800781 17.300781 51.800781 18 51.800781 18.898438 C 51.800781 19.5 51.300781 20 50.800781 20 C 50.300781 20 49.800781 19.5 49.800781 18.898438 C 49.800781 17 49.800781 15 49.800781 13 C 49.800781 12.5 50.101562 12.101562 50.601562 12 C 51 11.898438 51.398438 12.101562 51.699219 12.398438 C 52.5 13.5 53.300781 14.601562 54.101562 15.699219 C 54.101562 15.898438 54.199219 15.898438 54.300781 16 Z M 54.300781 16 "/>
<path style=" stroke:none;fill-rule:nonzero;fill:rgb(100%,100%,100%);fill-opacity:1;" d="M 111 16 C 111 15.800781 111 15.699219 111 15.601562 C 111 14.699219 111 14 111 13.101562 C 111 12.5 111.5 12 112 12 C 112.601562 12 113 12.398438 113 13 C 113 15 113 16.898438 113 19 C 113 19.5 112.699219 19.898438 112.300781 20 C 111.898438 20.101562 111.398438 19.898438 111.101562 19.5 C 110.300781 18.398438 109.5 17.398438 108.699219 16.300781 C 108.699219 16.199219 108.601562 16.199219 108.5 16.101562 C 108.5 16.199219 108.5 16.300781 108.5 16.398438 C 108.5 17.300781 108.5 18 108.5 18.898438 C 108.5 19.5 108 20 107.5 20 C 107 20 106.5 19.5 106.5 18.898438 C 106.5 17 106.5 15 106.5 13 C 106.5 12.5 106.800781 12.101562 107.300781 12 C 107.699219 11.898438 108.101562 12.101562 108.398438 12.398438 C 109.199219 13.5 110 14.601562 110.800781 15.699219 C 110.898438 15.898438 110.898438 15.898438 111 16 Z M 111 16 "/>
<path style=" stroke:none;fill-rule:nonzero;fill:rgb(100%,100%,100%);fill-opacity:1;" d="M 101.699219 20.101562 C 99.5 20.101562 97.800781 18.300781 97.800781 16.101562 C 97.800781 13.898438 99.601562 12.199219 101.800781 12.199219 C 104 12.199219 105.699219 14 105.699219 16.199219 C 105.601562 18.300781 103.800781 20.101562 101.699219 20.101562 Z M 103.699219 16 C 103.800781 14.898438 102.800781 14 101.699219 14 C 100.601562 14 99.699219 14.898438 99.699219 16 C 99.699219 17.101562 100.601562 18 101.699219 18 C 102.800781 18.101562 103.699219 17.199219 103.699219 16 Z M 103.699219 16 "/>
<path style=" stroke:none;fill-rule:nonzero;fill:rgb(100%,100%,100%);fill-opacity:1;" d="M 77.199219 20.101562 C 75 20.101562 73.300781 18.300781 73.300781 16.101562 C 73.300781 13.898438 75.199219 12.101562 77.300781 12.199219 C 79.398438 12.199219 81.199219 14.101562 81.199219 16.199219 C 81.199219 18.300781 79.398438 20.101562 77.199219 20.101562 Z M 79.199219 16 C 79.300781 15 78.398438 14 77.199219 14 C 76.101562 14 75.199219 14.898438 75.199219 16 C 75.199219 17.101562 76.101562 18 77.199219 18 C 78.398438 18.101562 79.199219 17.199219 79.199219 16 Z M 79.199219 16 "/>
<path style=" stroke:none;fill-rule:nonzero;fill:rgb(100%,100%,100%);fill-opacity:1;" d="M 57.199219 15.199219 C 57.199219 14.5 57.199219 13.898438 57.199219 13.199219 C 57.199219 12.601562 57.601562 12.101562 58.199219 12.101562 C 58.800781 12.101562 59.199219 12.601562 59.199219 13.199219 C 59.199219 14.5 59.199219 15.699219 59.199219 16.898438 C 59.199219 17.800781 60 18.199219 60.699219 18.101562 C 61.199219 18 61.601562 17.5 61.601562 16.898438 C 61.601562 15.601562 61.601562 14.398438 61.601562 13.101562 C 61.601562 12.398438 62.101562 11.898438 62.800781 12 C 63.300781 12.101562 63.699219 12.5 63.699219 13.101562 C 63.699219 14.398438 63.699219 15.800781 63.601562 17.101562 C 63.5 18.5 62.199219 19.800781 60.699219 20 C 58.898438 20.101562 57.199219 18.601562 57.199219 16.800781 C 57.199219 16.300781 57.199219 15.800781 57.199219 15.199219 Z M 57.199219 15.199219 "/>
<path style=" stroke:none;fill-rule:nonzero;fill:rgb(100%,100%,100%);fill-opacity:1;" d="M 122 17.699219 C 121.5 17.699219 121.101562 17.699219 120.699219 17.699219 C 119.601562 17.699219 119.300781 17.300781 119 16.398438 C 119 16.300781 118.898438 16.101562 118.898438 16 C 118.898438 15.800781 118.898438 15.699219 119 15.601562 C 119.300781 14.601562 119.699219 14.300781 120.699219 14.300781 C 121.199219 14.300781 121.601562 14.300781 122 14.300781 C 122.601562 14.300781 123 13.800781 123 13.300781 C 123 12.699219 122.5 12.199219 121.898438 12.199219 L 120.199219 12.199219 C 118.898438 12.199219 118 12.898438 117.398438 13.898438 C 116.601562 15.300781 116.601562 16.800781 117.300781 18.199219 C 117.398438 18.300781 117.398438 18.398438 117.5 18.5 C 118.101562 19.398438 119 20 120.199219 20 L 121.898438 20 C 122.5 20 122.898438 19.5 123 18.898438 C 123 18.101562 122.601562 17.699219 122 17.699219 Z M 122 17.699219 "/>
<path style=" stroke:none;fill-rule:nonzero;fill:rgb(100%,100%,100%);fill-opacity:1;" d="M 115.898438 16 C 115.898438 17 115.898438 18 115.898438 19 C 115.898438 19.699219 115.199219 20.199219 114.601562 19.898438 C 114.199219 19.699219 114 19.398438 114 18.898438 C 114 17.898438 114 17.101562 114 16.101562 C 114 15 114 14 114 12.898438 C 114 12.300781 114.398438 11.898438 115 11.800781 C 115.601562 11.800781 116.101562 12.199219 116.101562 12.800781 C 115.898438 14.101562 115.898438 15.101562 115.898438 16 Z M 115.898438 16 "/>
<path style=" stroke:none;fill-rule:nonzero;fill:rgb(100%,100%,100%);fill-opacity:1;" d="M 84.601562 14 C 83.800781 14 83.101562 14 82.300781 14 C 81.699219 14 81.199219 13.398438 81.199219 13 C 81.199219 12.398438 81.699219 12 82.300781 12 C 83.800781 12 85.5 12 87 12 C 87.601562 12 88.101562 12.5 88.101562 13 C 88.101562 13.601562 87.601562 14 87 14 C 86.300781 14 85.5 14 84.601562 14 Z M 84.601562 14 "/>
<path style=" stroke:none;fill-rule:nonzero;fill:rgb(100%,100%,100%);fill-opacity:1;" d="M 83.800781 17.601562 C 83.800781 17.101562 83.800781 16.601562 83.800781 16.199219 C 83.800781 15.601562 84.199219 15.199219 84.800781 15.199219 C 85.398438 15.199219 85.800781 15.601562 85.898438 16.199219 C 85.898438 17.300781 85.898438 18.199219 85.898438 19.300781 C 85.898438 19.898438 85.398438 20.300781 84.800781 20.300781 C 84.300781 20.300781 83.800781 19.800781 83.800781 19.300781 C 83.800781 19.300781 83.800781 19.300781 83.800781 19.199219 C 83.800781 18.601562 83.800781 18.101562 83.800781 17.601562 Z M 83.800781 17.601562 "/>
</g>
</svg>
