<?xml version="1.0" encoding="UTF-8"?>
<svg xmlns="http://www.w3.org/2000/svg" xmlns:xlink="http://www.w3.org/1999/xlink" width="32px" height="32px" viewBox="0 0 32 32" version="1.1">
<g id="surface1">
<path style=" stroke:none;fill-rule:nonzero;fill:rgb(100%,100%,100%);fill-opacity:1;" d="M 27.210938 32 L 4.789062 32 C 2.148438 32 0 29.851562 0 27.210938 L 0 4.789062 C 0 2.148438 2.148438 0 4.789062 0 L 27.199219 0 C 29.851562 0 32 2.148438 32 4.789062 L 32 27.199219 C 32 29.851562 29.851562 32 27.210938 32 Z M 27.210938 32 "/>
<path style="fill-rule:nonzero;fill:rgb(90.196078%,18.431373%,19.607843%);fill-opacity:1;stroke-width:1;stroke-linecap:butt;stroke-linejoin:miter;stroke:rgb(11.764706%,11.764706%,10.980392%);stroke-opacity:1;stroke-miterlimit:10;" d="M 23.070312 12.871094 L 21.730469 12.890625 "/>
<path style=" stroke:none;fill-rule:nonzero;fill:rgb(0%,0%,0%);fill-opacity:1;" d="M 21.730469 12.511719 C 21.730469 12.511719 21.730469 12.488281 21.738281 12.46875 C 21.75 12.449219 21.769531 12.449219 21.769531 12.449219 C 21.78125 12.449219 21.789062 12.449219 21.800781 12.460938 C 21.769531 12.488281 21.738281 12.519531 21.710938 12.550781 C 21.710938 12.550781 21.738281 12.570312 21.738281 12.589844 C 21.738281 12.621094 21.71875 12.648438 21.679688 12.660156 C 21.660156 12.699219 21.648438 12.738281 21.628906 12.78125 C 20.898438 14.589844 20.171875 16.410156 19.429688 18.21875 C 18.769531 16.851562 18.101562 15.480469 17.441406 14.109375 L 16.5 12.210938 C 16.351562 11.910156 16.050781 11.429688 15.519531 11.070312 C 14.5 10.378906 13.410156 10.648438 13.171875 10.710938 C 12.941406 10.769531 12.421875 10.898438 11.910156 11.371094 C 11.550781 11.699219 11.351562 12.058594 11.238281 12.289062 L 7.261719 20.460938 L 9.339844 20.460938 L 12.230469 14.578125 C 12.480469 13.960938 12.730469 13.480469 12.929688 13.140625 C 13.128906 12.789062 13.25 12.628906 13.441406 12.53125 C 13.738281 12.371094 14.179688 12.371094 14.488281 12.621094 C 14.609375 12.71875 14.691406 12.828125 14.730469 12.910156 L 18.441406 20.460938 L 20.511719 20.460938 L 23.609375 12.511719 C 23.609375 12.5 23.621094 12.488281 23.621094 12.488281 L 23.058594 12.5 "/>
<path style=" stroke:none;fill-rule:nonzero;fill:rgb(0%,0%,0%);fill-opacity:1;" d="M 24.601562 10.609375 C 24.058594 10.589844 23.648438 10.730469 23.511719 10.769531 C 23.289062 10.839844 22.789062 11.011719 22.328125 11.480469 C 22 11.820312 21.828125 12.171875 21.738281 12.398438 C 20.640625 15.089844 19.550781 17.769531 18.449219 20.460938 C 19.140625 20.460938 19.828125 20.460938 20.519531 20.460938 C 21.300781 18.46875 22.078125 16.46875 22.859375 14.480469 C 23.058594 13.878906 23.269531 13.410156 23.441406 13.070312 C 23.609375 12.71875 23.710938 12.570312 23.898438 12.460938 C 24.070312 12.359375 24.300781 12.308594 24.519531 12.328125 C 24.570312 11.761719 24.601562 11.179688 24.601562 10.609375 Z M 24.601562 10.609375 "/>
<path style=" stroke:none;fill-rule:nonzero;fill:rgb(0%,0%,0%);fill-opacity:1;" d="M 13.921875 15.519531 L 16.429688 20.449219 L 11.371094 20.449219 Z M 13.921875 15.519531 "/>
<path style=" stroke:none;fill-rule:nonzero;fill:rgb(100%,100%,100%);fill-opacity:1;" d="M 16.800781 11.101562 C 16.800781 11.160156 16.75 11.210938 16.691406 11.210938 L 16.648438 11.210938 C 16.589844 11.210938 16.539062 11.160156 16.539062 11.101562 C 16.539062 11.039062 16.589844 10.988281 16.648438 10.988281 L 16.691406 10.988281 C 16.75 11 16.800781 11.039062 16.800781 11.101562 "/>
<path style=" stroke:none;fill-rule:nonzero;fill:rgb(0%,0%,0%);fill-opacity:1;" d="M 0.929688 20.449219 L 1.511719 18.921875 L 8.089844 18.878906 L 7.269531 20.449219 L 0.929688 20.449219 "/>
<path style=" stroke:none;fill-rule:nonzero;fill:rgb(0%,0%,0%);fill-opacity:1;" d="M 24.078125 12.328125 L 28.96875 12.390625 L 30.878906 12.410156 L 31.671875 10.621094 C 29.289062 10.621094 26.921875 10.621094 24.539062 10.621094 "/>
</g>
</svg>
