<?xml version="1.0" encoding="UTF-8"?>
<svg xmlns="http://www.w3.org/2000/svg" xmlns:xlink="http://www.w3.org/1999/xlink" width="32px" height="32px" viewBox="0 0 32 32" version="1.1">
<g id="surface1">
<path style=" stroke:none;fill-rule:nonzero;fill:rgb(0%,0%,0%);fill-opacity:1;" d="M 28.5 11.898438 C 27.800781 11.898438 27.199219 11.898438 26.601562 11.898438 C 26 11.898438 25.5 12.101562 25.300781 12.699219 C 25 13.398438 24.699219 14 24.398438 14.699219 C 24 15.699219 23.601562 16.601562 23.199219 17.601562 C 22.800781 18.601562 22.398438 19.398438 22.101562 20.398438 C 21.800781 21 21.601562 21.699219 21.300781 22.199219 C 21.300781 22.300781 21.199219 22.300781 21.101562 22.300781 C 20.300781 22.300781 19.601562 22.300781 18.800781 22.300781 C 18.699219 22.300781 18.699219 22.300781 18.699219 22.300781 L 18.601562 22.199219 C 17.898438 20.800781 17.199219 19.300781 16.5 18 C 15.601562 16.300781 14.800781 14.5 13.898438 12.699219 C 13.800781 12.199219 13.398438 12 13 12 C 12.5 12 12.199219 12.101562 11.898438 12.5 C 11.5 13.199219 11.101562 13.800781 10.800781 14.5 C 10.5 15.101562 10.199219 15.800781 9.898438 16.300781 C 9.101562 17.800781 8.5 19.300781 7.699219 20.800781 C 7.5 21.300781 7.199219 21.699219 7 22.101562 C 6.898438 22.199219 6.800781 22.199219 6.699219 22.199219 C 5.800781 22.199219 5.101562 22.199219 4.199219 22.199219 C 3.199219 22.199219 2.300781 22.199219 1.300781 22.199219 C 3.699219 27.800781 9.398438 31.699219 15.800781 31.699219 C 24.601562 31.699219 31.699219 24.601562 31.699219 15.800781 C 31.699219 14.398438 31.5 13 31.101562 11.800781 C 30.300781 11.898438 29.300781 11.898438 28.5 11.898438 Z M 9.601562 22.300781 C 10.699219 20.199219 11.699219 18.199219 12.800781 16 C 13.898438 18.101562 14.898438 20.101562 16 22.300781 C 13.800781 22.300781 11.699219 22.300781 9.601562 22.300781 Z M 9.601562 22.300781 "/>
<path style=" stroke:none;fill-rule:nonzero;fill:rgb(0%,0%,0%);fill-opacity:1;" d="M 5.101562 20.398438 C 5.300781 20.398438 5.300781 20.300781 5.398438 20.199219 C 6.398438 18.300781 7.199219 16.300781 8.199219 14.398438 C 8.699219 13.5 9.101562 12.699219 9.5 11.699219 C 9.601562 11.601562 9.601562 11.5 9.699219 11.398438 C 10.300781 10.5 11 10 12.101562 9.699219 C 13 9.5 13.800781 9.601562 14.601562 10 C 15.398438 10.398438 15.898438 11 16.199219 11.699219 C 16.800781 12.898438 17.398438 13.898438 17.800781 15.101562 C 18.5 16.398438 19.101562 17.800781 19.699219 19.101562 C 19.699219 19.199219 19.800781 19.199219 19.800781 19.300781 L 22.398438 12.898438 L 22.5 12.699219 C 22.601562 12.398438 22.800781 12.101562 22.898438 11.800781 C 23.398438 10.699219 24.199219 10.101562 25.300781 9.800781 C 25.800781 9.699219 26.199219 9.601562 26.601562 9.699219 C 27.898438 9.699219 29 9.699219 30.300781 9.699219 C 28 4.101562 22.398438 0.199219 16 0.199219 C 7.199219 0.199219 0.101562 7.300781 0.101562 16 C 0.101562 17.398438 0.300781 19 0.699219 20.300781 C 2.199219 20.398438 3.601562 20.398438 5.101562 20.398438 Z M 5.101562 20.398438 "/>
</g>
</svg>
