<?xml version="1.0" standalone="no"?>
<!DOCTYPE svg PUBLIC "-//W3C//DTD SVG 20010904//EN"
 "http://www.w3.org/TR/2001/REC-SVG-20010904/DTD/svg10.dtd">
<svg version="1.0" xmlns="http://www.w3.org/2000/svg"
 width="2000.000000pt" height="2000.000000pt" viewBox="0 0 2000.000000 2000.000000"
 preserveAspectRatio="xMidYMid meet">

<g transform="translate(0.000000,2000.000000) scale(0.100000,-0.100000)"
fill="#000000" stroke="none">
<path d="M8200 18032 c-47 -27 -104 -61 -128 -76 -24 -15 -51 -30 -60 -34 -65
-28 -90 -55 -126 -133 -21 -45 -35 -88 -32 -96 3 -8 1 -11 -4 -8 -6 3 -10 -5
-10 -19 0 -15 6 -26 14 -26 7 0 19 -7 26 -15 7 -8 48 -33 91 -55 l79 -40 0 25
c0 14 5 25 10 25 6 0 10 7 10 15 0 8 27 71 60 140 33 69 60 128 60 131 0 3 19
43 41 87 39 78 61 127 56 127 -1 0 -40 -22 -87 -48z m-250 -202 c0 -5 -7 -10
-16 -10 -8 0 -12 5 -9 10 3 6 10 10 16 10 5 0 9 -4 9 -10z m-32 -131 c-3 -8
-7 -3 -11 10 -4 17 -3 21 5 13 5 -5 8 -16 6 -23z m-24 -9 c-6 -6 -10 -3 -10
10 0 13 4 16 10 10 7 -7 7 -13 0 -20z"/>
<path d="M15322 17441 l-32 -29 0 -199 -1 -198 -23 55 c-80 184 -115 255 -130
258 -9 2 -29 -6 -46 -18 l-30 -21 0 -355 c0 -330 1 -354 18 -354 9 0 31 11 47
24 l30 24 5 197 5 198 69 -152 c75 -164 84 -174 132 -126 l24 24 -2 348 c-3
386 -3 384 -66 324z"/>
<path d="M8385 17323 c-11 -3 -38 -13 -60 -23 -35 -16 -42 -25 -53 -66 -24
-91 -124 -198 -235 -254 -75 -38 -112 -38 -181 -1 -63 34 -85 34 -149 -4 -41
-24 -46 -29 -35 -44 12 -14 11 -14 -4 -3 -15 12 -23 10 -57 -9 -22 -12 -38
-26 -35 -30 3 -5 -1 -6 -9 -3 -8 3 -20 -2 -27 -11 -7 -8 -17 -15 -23 -15 -5 0
-16 -8 -24 -17 -9 -11 -12 -12 -7 -3 4 8 3 11 -1 7 -11 -10 -16 -39 -5 -32 4
2 52 -20 105 -49 l98 -55 32 25 c18 13 35 24 39 24 4 0 50 25 103 56 70 41 92
59 82 66 -9 5 -4 6 16 2 23 -4 27 -3 15 5 -33 24 56 -2 103 -30 83 -50 156
-35 279 59 134 102 199 309 120 387 -24 24 -44 28 -87 18z m-605 -337 c0 -2
-7 -7 -16 -10 -8 -3 -12 -2 -9 4 6 10 25 14 25 6z m144 -88 c-3 -4 -12 -8 -20
-8 -8 0 -14 4 -14 8 0 4 9 8 19 8 11 0 17 -4 15 -8z"/>
<path d="M14875 17186 l-110 -63 -3 -362 c-1 -198 1 -361 4 -361 4 0 58 30
120 66 l114 66 0 64 c0 35 -4 64 -8 64 -5 0 -34 -14 -65 -31 l-57 -31 0 81 0
80 54 30 c61 35 66 44 66 112 0 58 -10 62 -76 23 l-45 -26 3 73 3 74 60 36 60
36 3 67 c2 36 -1 66 -5 66 -5 0 -58 -29 -118 -64z"/>
<path d="M6676 17208 l-29 -11 7 -131 c15 -302 3 -616 -27 -731 -23 -85 -68
-163 -124 -216 -60 -56 -63 -73 -34 -143 24 -54 66 -81 114 -71 74 16 177 105
212 184 9 20 21 46 27 59 7 12 12 37 12 56 1 19 4 32 7 30 22 -13 41 392 31
661 -5 112 -26 241 -46 280 -9 17 -16 26 -16 20 0 -5 -5 -2 -11 8 -11 20 -75
22 -123 5z m31 -30 c-3 -8 -6 -5 -6 6 -1 11 2 17 5 13 3 -3 4 -12 1 -19z m110
-880 c-3 -8 -6 -5 -6 6 -1 11 2 17 5 13 3 -3 4 -12 1 -19z m-204 -55 c-5 -11
-3 -14 6 -8 10 6 11 3 2 -14 -15 -27 -17 -27 -15 7 2 30 2 32 9 32 2 0 1 -7
-2 -17z"/>
<path d="M14565 17001 c-25 -8 -154 -79 -177 -99 -17 -14 -18 -44 -18 -369 0
-266 3 -353 12 -353 20 0 151 81 191 119 70 65 101 149 117 312 16 166 -9 342
-52 376 -18 14 -50 20 -73 14z m2 -182 c16 -31 17 -283 2 -345 -11 -41 -55
-94 -80 -94 -5 0 -9 92 -9 220 l0 219 28 15 c33 19 44 16 59 -15z"/>
<path d="M14085 16731 c-44 -26 -85 -58 -92 -71 -9 -19 -13 -113 -13 -358 0
-280 2 -333 14 -338 18 -7 148 67 194 110 80 74 115 197 116 406 2 297 -47
353 -219 251z m102 -149 c12 -56 8 -292 -5 -339 -7 -23 -24 -51 -39 -62 -52
-42 -53 -40 -53 194 l0 215 31 19 c40 25 57 18 66 -27z"/>
<path d="M13852 16600 c-18 -11 -37 -31 -42 -44 -11 -29 -13 -676 -2 -693 12
-19 90 20 97 49 10 41 1 701 -10 705 -5 1 -25 -6 -43 -17z"/>
<path d="M13555 16424 c-44 -25 -85 -50 -92 -56 -17 -14 -19 -718 -2 -718 21
0 145 75 186 113 56 52 91 127 99 214 8 93 -16 158 -63 168 -1 1 9 30 24 65
19 47 25 82 26 136 1 137 -42 156 -178 78z m75 -158 c0 -71 -12 -102 -50 -121
l-30 -16 0 84 c0 77 2 85 23 95 48 23 57 16 57 -42z m10 -296 c0 -32 -5 -70
-11 -83 -9 -21 -56 -57 -73 -57 -3 0 -6 38 -6 85 0 82 1 85 28 99 53 29 62 23
62 -44z"/>
<path d="M8865 16234 c-28 -15 -117 -66 -200 -114 -151 -88 -308 -179 -550
-318 -71 -41 -263 -151 -425 -245 -162 -94 -396 -229 -520 -300 -124 -71 -335
-193 -470 -272 -135 -78 -369 -213 -520 -300 -151 -87 -369 -213 -485 -280
-115 -67 -331 -192 -480 -278 -148 -85 -360 -207 -470 -270 -258 -149 -314
-203 -366 -354 -18 -55 -19 -112 -19 -2365 0 -1270 2 -2313 5 -2318 3 -5 19
-16 35 -24 17 -9 45 -24 63 -33 19 -11 94 -26 190 -38 l157 -21 0 2271 0 2270
208 119 c114 66 308 178 432 249 124 71 230 132 235 137 6 4 31 19 57 33 25
14 106 60 180 103 73 42 192 111 263 152 221 127 767 442 835 482 160 94 391
227 450 260 36 20 124 70 195 112 72 41 204 118 295 171 201 116 513 296 674
388 65 38 120 69 122 69 2 0 4 -1031 4 -2292 0 -2181 1 -2290 18 -2276 11 10
80 25 192 42 96 15 190 29 208 32 17 3 32 2 32 -1 0 -3 -40 -59 -90 -124 -76
-100 -95 -120 -122 -124 -18 -3 -115 -18 -216 -34 l-183 -27 -95 -125 c-53
-69 -91 -127 -86 -129 8 -2 256 32 375 53 34 6 34 -2 -3 -45 l-29 -35 -1
-1122 0 -1123 23 -5 c20 -4 414 -55 430 -55 4 0 7 704 7 1565 0 1245 -3 1565
-12 1565 -7 0 -53 -7 -103 -15 -120 -20 -120 -20 -98 9 10 13 62 81 116 151
l97 126 -2 2284 c-3 2266 -3 2284 -23 2310 -11 15 -63 51 -115 81 -109 63
-141 67 -215 28z"/>
<path d="M13200 16220 c-35 -21 -72 -44 -82 -52 -17 -11 -18 -38 -18 -365 0
-393 -3 -375 66 -332 19 11 35 21 35 22 1 1 5 63 8 137 6 126 7 135 26 135 17
0 23 -13 40 -97 11 -53 23 -100 27 -103 9 -9 88 33 95 51 9 23 -36 223 -58
261 -18 33 -18 33 9 85 23 47 27 65 27 148 0 75 -4 102 -18 123 -26 40 -75 36
-157 -13z m74 -152 c11 -45 -10 -115 -41 -136 l-23 -14 0 82 c0 67 3 85 18 96
25 19 36 12 46 -28z"/>
<path d="M12906 16053 c-62 -16 -142 -102 -172 -185 -56 -156 -60 -448 -7
-551 32 -63 105 -60 181 8 90 81 132 221 132 438 0 216 -45 312 -134 290z m13
-190 c13 -45 14 -270 2 -332 -11 -55 -41 -95 -73 -99 -35 -4 -40 12 -46 157
-6 153 9 246 44 284 36 39 61 35 73 -10z"/>
<path d="M5072 15967 c-7 -18 -12 -41 -12 -51 0 -10 -7 -25 -16 -33 -8 -9 -13
-24 -11 -35 3 -10 2 -16 -2 -13 -9 5 -22 -20 -41 -75 -7 -19 -18 -48 -25 -65
-68 -153 -89 -202 -119 -280 -19 -49 -33 -91 -31 -93 2 -2 64 32 139 75 l135
78 1 262 c0 145 -1 263 -3 263 -2 0 -8 -15 -15 -33z"/>
<path d="M12530 15833 c-52 -31 -98 -61 -102 -67 -4 -6 -8 -167 -8 -358 0
-308 2 -348 15 -348 25 0 73 28 85 49 5 11 10 82 10 158 l0 139 53 30 52 30 3
67 c2 43 -1 67 -8 67 -6 0 -28 -11 -50 -25 -22 -14 -42 -25 -45 -25 -3 0 -5
33 -5 73 l0 73 55 29 c44 24 56 36 61 61 7 40 1 97 -11 101 -5 1 -53 -23 -105
-54z"/>
<path d="M4160 14958 l0 -234 56 -32 c31 -18 61 -29 66 -25 6 3 8 1 5 -4 -4
-6 0 -14 9 -17 10 -4 13 -2 8 7 -4 6 8 -3 26 -20 19 -18 37 -33 41 -33 11 0 7
44 -6 52 -7 5 -6 14 2 27 10 15 10 21 0 24 -9 4 -9 7 1 18 8 9 12 59 12 176
l0 162 -42 29 c-24 16 -73 45 -110 66 l-68 37 0 -233z m104 -277 c-2 -3 -12 3
-22 13 -16 17 -16 18 5 5 12 -7 20 -15 17 -18z"/>
<path d="M5040 14919 c-19 -12 -36 -25 -38 -30 -2 -5 -13 -9 -25 -10 -12 0
-42 -15 -66 -32 -45 -33 -48 -40 -42 -109 1 -20 118 -91 133 -82 7 5 8 2 3 -6
-6 -10 -4 -12 9 -7 9 4 15 3 12 -2 -3 -5 10 -18 30 -30 34 -20 64 -30 35 -12
-11 7 -14 42 -12 175 1 91 1 166 -1 166 -2 0 -19 -10 -38 -21z m-85 -219 c17
-19 17 -19 -8 -7 -14 6 -23 15 -21 19 7 11 9 10 29 -12z"/>
<path d="M14075 14411 c-250 -30 -492 -116 -675 -242 -96 -66 -210 -179 -248
-248 l-24 -42 73 -75 c40 -41 97 -93 126 -116 l53 -41 258 6 c196 4 287 10
382 26 110 19 299 66 368 92 l24 9 -30 34 c-38 43 -72 134 -72 190 0 38 5 46
40 75 22 17 51 52 66 76 14 25 28 45 30 45 3 0 16 -7 29 -16 24 -16 39 -15 94
2 l24 7 -6 -84 c-7 -92 -35 -190 -73 -256 -14 -24 -22 -43 -18 -43 20 0 154
80 184 110 73 73 203 327 183 358 -14 24 -85 62 -146 78 -170 46 -485 73 -642
55z"/>
<path d="M14680 13806 c0 -23 -85 -93 -157 -129 -107 -54 -335 -118 -508 -142
-46 -7 -48 -8 -25 -17 64 -25 183 -40 305 -40 107 0 147 5 229 26 239 62 361
171 279 248 -46 43 -123 77 -123 54z"/>
<path d="M13414 13511 c2 -9 14 -63 27 -120 16 -71 27 -104 38 -108 47 -14 83
-41 118 -89 59 -83 86 -81 132 12 31 62 48 131 57 225 l7 79 -134 1 c-74 0
-160 4 -192 8 -49 6 -57 5 -53 -8z"/>
<path d="M14548 13438 l-22 -22 63 -29 c68 -30 87 -26 75 18 -15 53 -78 71
-116 33z"/>
<path d="M13965 13385 c-24 -24 -35 -75 -15 -75 16 0 120 53 120 62 0 12 -43
38 -63 38 -10 0 -29 -11 -42 -25z"/>
<path d="M14523 13310 c-53 -21 -31 -110 27 -110 15 0 36 7 44 16 24 23 20 70
-6 88 -25 18 -33 19 -65 6z"/>
<path d="M14044 13245 c-20 -31 -15 -53 17 -77 23 -17 30 -18 50 -8 30 16 39
29 39 57 0 53 -76 74 -106 28z"/>
<path d="M6857 13173 c-5 -9 -45 -178 -147 -627 -39 -171 -75 -326 -80 -346
-9 -32 -21 -42 -132 -107 -68 -39 -140 -80 -160 -92 -116 -64 -155 -102 -183
-180 -23 -66 -22 -946 1 -979 31 -44 69 -32 293 97 327 188 708 408 806 465
50 29 121 70 159 91 83 46 125 87 157 151 l24 49 0 468 0 469 -24 19 c-13 10
-34 19 -48 19 -13 0 -112 -50 -219 -111 -107 -62 -196 -110 -198 -108 -3 4
-182 580 -207 667 -12 42 -33 70 -42 55z m35 -145 c9 -29 52 -171 97 -314 44
-144 81 -269 81 -277 0 -8 -26 -30 -57 -48 -32 -17 -71 -40 -88 -49 -111 -63
-232 -134 -244 -144 -12 -9 -13 -5 -8 29 12 79 192 855 198 855 3 0 13 -24 21
-52z m522 -781 c25 -18 25 -140 2 -186 -15 -28 -15 -36 -2 -74 8 -24 20 -71
27 -106 13 -59 12 -64 -6 -77 -35 -26 -49 -13 -65 61 -11 48 -20 70 -30 70
-12 0 -16 -20 -20 -98 -4 -83 -8 -101 -24 -113 -46 -33 -47 -29 -44 228 l3
242 55 33 c61 36 77 39 104 20z m-237 -156 c24 -32 37 -172 24 -265 -19 -138
-82 -236 -151 -236 -63 0 -85 64 -77 230 3 84 10 130 26 171 40 105 134 158
178 100z m-257 -167 c14 -42 6 -123 -15 -165 -13 -24 -13 -32 0 -62 7 -18 19
-63 26 -100 14 -73 4 -101 -34 -95 -16 2 -23 16 -34 63 -18 81 -20 86 -38 79
-12 -5 -15 -24 -15 -97 0 -96 -13 -127 -52 -127 -17 0 -18 13 -18 233 0 127 4
237 8 243 15 22 98 64 129 64 27 0 33 -5 43 -36z m-240 -120 c16 -42 12 -136
-8 -175 -15 -29 -16 -39 -6 -55 6 -10 20 -55 29 -98 l17 -80 -22 -18 c-33 -27
-47 -22 -54 20 -14 76 -27 112 -41 112 -19 0 -23 -21 -23 -113 0 -60 -4 -82
-17 -98 -42 -46 -45 -33 -45 225 l0 243 58 31 c71 39 99 41 112 6z m-218 -91
c9 -37 -8 -68 -50 -91 -35 -20 -42 -29 -43 -55 -1 -18 -3 -42 -4 -54 -3 -28
-3 -28 44 -3 32 16 40 17 44 5 7 -17 -1 -69 -12 -73 -4 -1 -22 -13 -41 -26
-32 -21 -34 -27 -35 -80 -1 -31 0 -56 2 -56 2 0 22 9 44 21 44 22 46 22 49 -1
7 -47 -1 -58 -71 -99 -40 -22 -76 -41 -80 -41 -5 0 -9 109 -9 243 l0 242 73
42 c83 49 83 49 89 26z"/>
<path d="M7333 12153 c-15 -6 -18 -123 -4 -123 20 0 41 46 41 87 0 42 -7 49
-37 36z"/>
<path d="M7077 12002 c-29 -31 -37 -72 -37 -181 0 -113 11 -148 42 -136 44 17
74 198 49 293 -13 45 -28 52 -54 24z"/>
<path d="M6822 11861 c-9 -5 -12 -27 -10 -70 3 -59 4 -61 23 -48 14 11 19 27
20 67 0 53 -9 67 -33 51z"/>
<path d="M6583 11723 c-9 -3 -13 -27 -13 -69 0 -60 1 -64 19 -55 24 13 43 61
39 97 -3 28 -20 38 -45 27z"/>
<path d="M13645 12874 c-16 -17 -36 -33 -43 -35 -20 -7 14 -95 46 -120 l27
-21 3 51 c2 27 2 74 0 103 l-3 53 -30 -31z"/>
<path d="M14184 12831 c4 -6 17 -11 28 -11 31 0 86 -38 95 -66 l8 -25 28 21
c15 12 27 28 27 36 0 19 -45 35 -78 28 -21 -4 -24 -3 -12 5 13 10 13 11 0 11
-8 1 -35 4 -59 7 -30 3 -41 2 -37 -6z"/>
<path d="M8411 10236 l-204 -32 -51 -70 c-28 -38 -67 -90 -87 -114 -60 -74
-60 -74 7 -66 85 11 366 55 369 58 1 2 33 44 71 93 117 153 126 165 112 164
-7 -1 -105 -15 -217 -33z"/>
<path d="M8195 9750 c-27 -4 -99 -15 -160 -25 -60 -9 -132 -20 -160 -23 -48
-7 -52 -10 -115 -88 -36 -45 -80 -103 -99 -129 l-35 -48 60 6 c32 4 131 18
219 32 88 14 166 26 173 27 6 1 12 11 12 24 0 12 32 63 73 116 69 89 92 120
85 117 -2 -1 -25 -5 -53 -9z"/>
<path d="M13136 9633 c-12 -78 -36 -490 -32 -543 5 -67 44 -176 82 -231 67
-97 169 -164 279 -183 90 -16 103 -25 89 -63 -17 -50 -64 -65 -177 -59 l-99 5
7 -27 c15 -63 117 -186 219 -265 98 -75 120 -135 67 -187 -43 -44 -126 -65
-256 -65 -101 0 -116 3 -182 32 l-73 31 -3 -612 -2 -611 -32 -145 c-18 -80
-37 -190 -43 -245 -7 -63 -13 -438 -16 -1010 -2 -500 -7 -926 -10 -945 -4 -19
-8 -70 -10 -113 -4 -89 8 -129 56 -183 56 -64 71 -107 80 -234 6 -75 17 -137
30 -173 65 -174 263 -249 515 -195 118 25 177 84 189 187 9 75 -4 108 -71 181
-108 118 -194 272 -247 439 -28 88 -32 121 -16 149 5 9 37 188 71 397 33 209
96 603 140 875 147 915 187 1172 276 1794 96 675 95 672 107 346 4 -102 15
-369 26 -595 25 -535 25 -527 7 -620 -27 -138 -40 -322 -34 -475 6 -135 73
-836 133 -1395 24 -214 25 -251 15 -340 -15 -132 -14 -264 2 -295 17 -34 69
-49 202 -60 152 -13 207 -30 322 -103 180 -113 390 -165 541 -133 80 17 187
68 208 100 7 12 14 56 16 105 3 83 3 84 -27 108 -17 14 -75 41 -130 62 -170
64 -310 143 -445 249 -57 45 -130 139 -130 169 0 12 29 457 65 990 36 532 70
1078 77 1213 14 288 18 2433 5 2583 -9 97 -9 98 -30 84 -84 -53 -295 -115
-492 -143 -144 -20 -535 -23 -690 -5 -260 31 -452 90 -543 166 l-30 25 -6 -37z"/>
<path d="M7675 9219 c-66 -10 -149 -25 -184 -32 l-65 -12 -94 -123 c-52 -68
-93 -125 -90 -127 2 -2 97 11 211 28 l207 32 28 35 c37 45 147 191 156 208 10
16 -20 15 -169 -9z"/>
<path d="M5160 8972 c-49 -49 -60 -134 -19 -147 16 -6 19 -17 19 -81 0 -41 3
-74 6 -74 3 0 14 5 25 10 16 9 19 22 19 91 0 63 4 85 20 107 23 32 31 80 18
105 -13 26 -56 21 -88 -11z"/>
<path d="M7275 8705 c-77 -12 -161 -25 -187 -29 -47 -7 -50 -10 -133 -118 -47
-60 -85 -114 -85 -118 0 -12 66 -16 125 -8 97 13 260 38 271 42 10 4 169 209
188 244 10 16 -9 15 -179 -13z"/>
<path d="M4620 8609 c0 -8 -9 -72 -20 -144 -24 -160 -24 -155 -1 -155 15 0 20
10 25 50 6 47 8 50 36 50 23 0 30 5 30 19 0 11 3 26 6 34 4 11 -4 17 -26 22
-22 5 -30 11 -26 22 3 8 6 19 6 24 0 5 13 9 29 9 24 0 29 5 35 32 3 17 5 33 3
35 -2 1 -25 6 -50 9 -36 5 -47 4 -47 -7z"/>
<path d="M4756 8578 c-33 -52 -54 -198 -36 -252 10 -31 16 -36 41 -36 26 0 33
6 51 47 26 59 38 224 18 248 -19 22 -57 18 -74 -7z m42 -118 c-5 -69 -21 -106
-40 -94 -11 7 -1 119 13 147 21 38 32 17 27 -53z"/>
<path d="M4887 8568 c-13 -55 -40 -279 -34 -284 15 -15 37 7 37 38 0 18 5 40
10 48 7 11 10 6 10 -20 0 -55 10 -80 31 -80 17 0 19 5 13 53 -5 40 -2 62 10
86 10 18 18 57 19 86 2 62 -11 81 -59 91 -27 5 -32 3 -37 -18z m57 -66 c9 -15
-6 -52 -20 -52 -15 0 -18 18 -8 44 7 17 20 21 28 8z"/>
<path d="M5026 8549 c-3 -13 -14 -82 -24 -154 l-19 -130 26 -6 c48 -12 60 -9
77 16 16 24 36 148 37 227 1 46 -9 57 -56 65 -32 5 -37 3 -41 -18z m57 -65 c9
-10 -4 -34 -19 -34 -8 0 -14 9 -14 20 0 19 19 27 33 14z m-13 -135 c0 -12 -7
-19 -20 -19 -21 0 -24 8 -14 34 8 20 34 9 34 -15z"/>
<path d="M5165 8528 c-9 -42 -35 -235 -35 -262 0 -32 28 -35 35 -3 8 41 35
237 35 262 0 32 -28 33 -35 3z"/>
<path d="M5235 8508 c-12 -75 -35 -239 -35 -258 0 -17 7 -20 40 -20 34 0 43 5
60 32 23 39 44 157 37 212 -6 45 -28 66 -68 66 -24 0 -29 -5 -34 -32z m57
-113 c-2 -60 -15 -95 -34 -95 -11 0 -5 111 8 145 14 35 29 6 26 -50z"/>
<path d="M5371 8433 c-7 -49 -17 -112 -22 -141 -6 -29 -8 -60 -5 -68 8 -21 69
-18 91 6 23 25 45 120 45 196 0 70 -17 94 -67 94 l-30 0 -12 -87z m67 -58 c-5
-61 -19 -95 -39 -95 -12 0 -11 20 2 97 8 45 15 63 26 63 13 0 15 -11 11 -65z"/>
<path d="M5522 8478 c-1 -13 -10 -79 -21 -148 -21 -138 -20 -140 40 -140 37 0
49 12 49 50 0 12 -10 20 -31 24 -42 8 -36 40 9 44 29 3 32 6 32 38 0 30 -3 34
-26 34 -21 0 -25 4 -22 22 2 17 10 22 33 23 27 0 30 3 33 38 l3 37 -48 0 c-43
0 -49 -3 -51 -22z"/>
<path d="M5659 8488 c-6 -15 -45 -295 -42 -300 2 -5 10 -8 17 -8 15 0 26 30
26 73 0 15 5 27 10 27 6 0 10 -15 10 -32 0 -48 10 -78 26 -78 16 0 18 10 39
155 19 137 19 155 0 155 -14 0 -17 -6 -31 -85 l-7 -40 -8 52 c-8 64 -15 83
-29 83 -5 0 -10 -1 -11 -2z"/>
<path d="M5862 8375 c-23 -47 -45 -103 -48 -125 -7 -40 -6 -40 26 -40 30 0 31
-2 25 -30 -6 -26 -4 -30 14 -30 12 0 21 6 21 14 0 8 6 21 13 28 20 20 30 70
17 78 -9 6 -9 25 -1 78 15 98 14 112 -7 112 -12 0 -30 -26 -60 -85z m18 -85
c0 -5 -5 -10 -11 -10 -5 0 -7 5 -4 10 3 6 8 10 11 10 2 0 4 -4 4 -10z"/>
<path d="M6011 8431 c-27 -27 -41 -80 -47 -181 -5 -65 -3 -89 8 -104 21 -26
62 -15 76 21 34 85 44 240 16 267 -20 21 -30 20 -53 -3z m26 -128 c-6 -76 -14
-103 -30 -103 -6 0 -8 24 -4 68 6 75 14 102 30 102 6 0 8 -24 4 -67z"/>
<path d="M3060 8410 c39 -54 150 -205 167 -225 10 -11 15 -20 13 -20 -2 0 16
-33 39 -72 43 -72 68 -95 56 -50 -5 19 -5 20 5 4 9 -13 9 -22 0 -32 -9 -10 -6
-22 12 -52 13 -21 36 -69 51 -108 15 -38 31 -75 35 -81 11 -16 159 -113 166
-108 3 2 4 1 1 -3 -3 -3 32 -31 78 -61 45 -30 93 -63 106 -73 24 -19 46 -26
37 -11 -2 4 0 14 5 22 7 11 8 8 5 -11 -3 -20 4 -32 30 -53 19 -15 39 -24 46
-20 6 4 8 3 5 -3 -6 -10 138 -110 153 -106 10 3 9 -30 -3 -44 -11 -15 -31 -17
-22 -3 8 13 -1 13 -28 -1 -21 -10 -21 -10 -3 5 11 9 28 14 38 10 29 -9 21 5
-9 17 -16 6 -32 12 -38 13 -5 1 -19 7 -30 12 -11 6 -49 21 -85 33 -36 13 -74
27 -85 32 -34 14 -186 71 -198 74 -7 1 -29 9 -49 19 -21 9 -43 16 -51 16 -7 0
-18 5 -25 12 -9 9 -12 7 -12 -12 0 -45 23 -181 29 -171 4 5 7 -8 7 -29 1 -41
33 -140 45 -140 5 0 12 7 17 16 8 14 10 14 15 2 3 -8 1 -21 -4 -29 -7 -12 -9
-12 -9 1 0 9 -3 11 -10 4 -7 -7 -4 -27 11 -61 15 -38 30 -56 60 -72 21 -12 44
-19 51 -15 7 5 8 3 3 -6 -6 -9 -1 -10 16 -5 16 4 20 3 10 -3 -10 -7 3 -18 50
-41 48 -24 65 -28 71 -19 6 9 8 7 6 -7 -2 -12 2 -19 10 -18 6 2 12 -1 12 -5 0
-5 39 -33 88 -62 77 -47 111 -71 160 -111 9 -8 18 -7 30 2 9 7 14 9 10 5 -4
-5 -2 -16 5 -25 11 -14 10 -15 -8 -1 -20 15 -20 14 -1 -8 11 -12 21 -20 23
-18 3 3 63 -51 63 -57 0 -1 -11 -3 -25 -3 -14 -1 -22 2 -19 7 3 5 -2 9 -10 9
-24 0 -30 1 -47 11 -9 4 -27 10 -40 13 -13 3 -64 19 -114 36 -101 34 -98 33
-90 20 3 -6 -1 -7 -9 -4 -9 3 -14 9 -11 13 4 8 -176 63 -183 56 -10 -9 -4
-185 8 -238 12 -50 15 -55 27 -39 11 15 12 13 3 -11 -8 -22 -5 -45 16 -110 28
-91 44 -127 55 -127 4 0 17 -11 30 -25 13 -13 27 -25 32 -25 19 0 127 -89 200
-165 52 -54 136 -160 145 -185 3 -8 8 -17 11 -20 3 -3 15 -22 27 -44 11 -21
24 -39 28 -40 8 -1 46 94 53 137 3 15 9 30 14 33 5 3 9 14 9 25 0 10 4 19 8
19 4 0 16 22 26 49 10 28 24 55 32 62 8 6 14 20 14 30 0 11 5 19 11 19 12 0 7
418 -5 495 -32 201 -56 306 -72 323 -8 8 -11 25 -8 45 5 26 3 29 -6 17 -10
-12 -11 -11 -7 8 6 25 -58 223 -75 233 -5 3 -9 9 -9 13 3 22 -1 36 -14 50 -9
8 -16 19 -16 23 -3 25 -44 101 -52 96 -6 -4 -7 -1 -3 6 5 7 1 20 -7 29 -8 9
-18 27 -22 40 -4 13 -11 20 -18 16 -7 -4 -9 -4 -5 1 4 4 -4 16 -17 27 -13 10
-22 25 -19 32 3 7 -3 19 -13 27 -16 13 -17 12 -5 -3 14 -17 4 -30 -26 -34 -11
-2 -11 1 -1 13 17 20 23 57 7 47 -7 -4 -8 -3 -4 4 10 16 -6 15 -24 0 -12 -11
-12 -10 0 6 13 16 11 21 -18 45 -38 31 -40 39 -8 37 16 -1 22 -6 18 -15 -4
-10 -1 -13 11 -8 12 4 15 2 11 -11 -5 -15 -4 -15 9 1 14 17 15 17 21 0 6 -15
8 -15 16 -3 7 11 8 8 6 -11 -1 -13 -5 -30 -9 -36 -12 -19 6 -23 26 -6 13 11
17 12 12 4 -6 -10 -4 -13 7 -9 8 4 21 2 29 -4 11 -8 10 -9 -3 -4 -10 3 -18 0
-18 -6 0 -7 -4 -7 -14 1 -9 7 -17 8 -20 3 -3 -6 1 -12 9 -16 8 -3 15 -12 15
-20 0 -7 7 -16 15 -20 8 -3 14 -9 13 -13 -4 -14 31 -70 47 -77 9 -3 14 -10 11
-15 -9 -14 5 -42 18 -39 6 2 11 -1 11 -7 0 -5 -4 -9 -8 -7 -10 3 -3 -9 27 -53
12 -16 20 -32 19 -35 -5 -12 10 -49 17 -45 5 3 8 -3 8 -12 0 -10 11 -48 26
-86 25 -64 92 -284 102 -330 44 -219 59 -358 59 -534 0 -111 8 -125 40 -70 10
17 54 68 97 111 43 44 78 83 78 88 0 4 6 8 14 8 8 0 28 12 45 26 17 14 36 22
42 18 7 -4 9 -3 5 4 -3 6 -1 16 6 23 10 9 13 179 11 833 l-1 821 -144 18
c-111 14 -155 24 -195 44 -29 15 -53 31 -53 35 0 4 -3 7 -7 6 -5 -1 -18 3 -30
10 l-23 13 -1 -328 c-1 -375 -2 -382 -11 -385 -6 -3 -63 60 -117 128 -12 15
-24 24 -28 20 -4 -3 7 -20 23 -37 28 -31 28 -31 3 -15 -14 9 -31 28 -38 42 -6
15 -7 23 -1 19 5 -3 10 -2 10 3 0 14 -66 62 -74 54 -4 -3 -4 1 -1 10 4 11 -4
23 -27 38 -18 13 -37 28 -43 34 -18 20 -113 96 -119 96 -4 0 -4 -6 0 -12 6
-10 5 -10 -8 -1 -8 7 -17 11 -20 8 -2 -3 -5 2 -5 10 0 9 5 12 12 7 6 -4 -3 5
-20 20 -16 15 -36 25 -43 23 -7 -3 -11 -1 -8 4 3 5 -5 16 -19 25 -26 17 -55
21 -55 8 0 -4 -10 -8 -22 -9 l-23 -1 23 10 c12 6 22 14 22 17 0 7 -80 61 -127
85 -30 15 -37 14 -34 -6 1 -8 -26 -4 -35 5 -4 4 1 7 11 7 15 0 15 2 5 15 -7 9
-20 13 -29 10 -8 -3 -12 -3 -8 1 9 10 -62 46 -75 38 -7 -4 -8 -3 -4 4 4 7 1
12 -6 12 -7 0 -26 7 -43 16 -53 29 -215 83 -230 77 -8 -3 -15 0 -15 5 0 10
-18 19 -57 27 -10 2 -31 8 -46 14 -40 16 -41 15 -17 -19z m40 -11 c0 -5 4 -7
10 -4 6 3 7 -1 4 -10 -4 -9 -7 -15 -8 -13 -1 2 -8 11 -15 21 -9 11 -10 17 -2
17 6 0 11 -5 11 -11z m85 -91 c5 4 5 1 1 -6 -6 -10 -11 -10 -22 -1 -8 6 -14
14 -14 16 0 3 6 0 13 -6 8 -6 18 -7 22 -3z m6 -51 c-10 -9 -11 -8 -5 6 3 10 9
15 12 12 3 -3 0 -11 -7 -18z m52 -34 c-3 -7 -6 -13 -8 -13 -2 0 -5 6 -8 13 -3
8 1 14 8 14 7 0 11 -6 8 -14z m36 -47 c0 -6 -3 -5 -6 2 -4 10 -8 9 -17 -3 -10
-15 -12 -14 -12 4 0 11 5 17 10 14 5 -4 7 2 3 13 -7 18 -7 18 8 0 8 -11 15
-25 14 -30z m414 -31 c-3 -9 -8 -14 -10 -11 -3 3 -2 9 2 15 9 16 15 13 8 -4z
m168 -98 c-6 -8 -8 -16 -5 -19 3 -3 1 -9 -4 -12 -6 -3 -9 0 -8 6 2 16 15 38
23 38 3 0 0 -6 -6 -13z m-451 -67 c0 -5 -2 -10 -4 -10 -3 0 -8 5 -11 10 -3 6
-1 10 4 10 6 0 11 -4 11 -10z m687 -172 c-3 -8 -6 -5 -6 6 -1 11 2 17 5 13 3
-3 4 -12 1 -19z m73 -18 c0 -5 -2 -10 -4 -10 -3 0 -8 5 -11 10 -3 6 -1 10 4
10 6 0 11 -4 11 -10z m-497 -125 c4 -8 3 -16 -1 -19 -4 -3 -9 4 -9 15 -2 23 3
25 10 4z m103 -87 c-9 -5 -23 -5 -32 0 -12 6 -7 9 16 9 23 0 28 -3 16 -9z
m207 -155 c-7 -2 -19 -2 -25 0 -7 3 -2 5 12 5 14 0 19 -2 13 -5z m-140 -30
c-7 -2 -19 -2 -25 0 -7 3 -2 5 12 5 14 0 19 -2 13 -5z m452 -53 c3 -5 1 -10
-4 -10 -6 0 -11 5 -11 10 0 6 2 10 4 10 3 0 8 -4 11 -10z m-98 -132 c-3 -8 -6
-5 -6 6 -1 11 2 17 5 13 3 -3 4 -12 1 -19z m77 -4 c3 -8 2 -12 -4 -9 -6 3 -10
10 -10 16 0 14 7 11 14 -7z m73 -26 c-3 -8 -6 -5 -6 6 -1 11 2 17 5 13 3 -3 4
-12 1 -19z m-84 -18 c-3 -12 -8 -19 -11 -16 -5 6 5 36 12 36 2 0 2 -9 -1 -20z
m-660 -53 c-2 -4 3 -10 11 -13 9 -3 16 -10 16 -15 0 -5 -8 -4 -19 2 -11 7 -18
24 -19 43 0 25 2 27 8 11 4 -11 6 -23 3 -28z m72 -28 c11 -16 1 -19 -13 -3 -7
8 -8 14 -3 14 5 0 13 -5 16 -11z m70 -69 c3 -5 1 -10 -4 -10 -6 0 -11 5 -11
10 0 6 2 10 4 10 3 0 8 -4 11 -10z m672 -72 c-3 -8 -6 -5 -6 6 -1 11 2 17 5
13 3 -3 4 -12 1 -19z m-501 -11 c1 -9 -2 -15 -7 -11 -5 3 -6 10 -3 16 5 8 1 9
-10 5 -11 -4 -15 -3 -11 4 10 14 28 6 31 -14z m-69 -183 c-3 -3 -12 -4 -19 -1
-8 3 -5 6 6 6 11 1 17 -2 13 -5z m840 -16 c-3 -8 -6 -5 -6 6 -1 11 2 17 5 13
3 -3 4 -12 1 -19z m-462 -26 c-3 -3 -11 0 -18 7 -9 10 -8 11 6 5 10 -3 15 -9
12 -12z m-186 -40 c-14 -5 -39 6 -39 17 0 5 11 4 25 -2 13 -7 20 -14 14 -15z
m118 -8 c-3 -3 -12 -4 -19 -1 -8 3 -5 6 6 6 11 1 17 -2 13 -5z m-320 -340 c-3
-3 -12 -4 -19 -1 -8 3 -5 6 6 6 11 1 17 -2 13 -5z"/>
<path d="M6127 8423 c-4 -3 -7 -20 -7 -36 0 -20 6 -30 20 -34 22 -6 25 -14 11
-28 -5 -6 -13 -27 -16 -47 -6 -30 -4 -38 8 -38 17 0 26 -18 20 -37 -6 -18 -24
-16 -38 4 -17 23 -35 7 -35 -31 0 -34 25 -66 52 -66 42 0 76 96 57 158 -9 26
-8 38 4 56 8 12 17 38 19 56 3 29 -1 35 -22 41 -34 9 -65 10 -73 2z"/>
<path d="M6292 8253 c-11 -81 -18 -151 -16 -155 3 -4 11 -8 19 -8 9 0 16 18
20 54 7 52 8 54 35 50 25 -4 28 -1 33 28 6 40 2 48 -24 48 -16 0 -20 6 -17 28
2 23 7 27 29 24 20 -2 28 2 33 20 13 52 9 58 -42 58 l-49 0 -21 -147z"/>
<path d="M6458 8373 c-27 -32 -36 -57 -48 -139 -13 -87 -5 -140 23 -158 23
-15 47 1 69 45 23 47 40 178 28 219 -15 51 -45 64 -72 33z m35 -76 c6 -17 -12
-130 -23 -141 -20 -20 -32 7 -25 58 12 82 33 121 48 83z"/>
<path d="M6575 8338 c-41 -246 -42 -278 -15 -278 16 0 20 7 20 38 0 62 16 70
23 11 7 -59 10 -64 32 -56 12 5 14 17 9 60 -5 42 -3 60 11 81 12 17 18 48 19
87 1 68 -15 89 -65 89 -24 0 -29 -5 -34 -32z m65 -61 c0 -7 -6 -22 -14 -33
-14 -18 -15 -18 -21 -1 -4 9 -5 24 -1 32 7 18 36 20 36 2z"/>
<path d="M6715 8338 c-6 -22 -35 -241 -35 -270 0 -26 3 -28 45 -28 55 0 65 15
77 115 4 38 11 87 14 108 9 53 -15 87 -62 87 -19 0 -36 -6 -39 -12z m60 -84
c0 -10 -8 -20 -17 -22 -18 -3 -26 27 -11 42 12 11 28 0 28 -20z m-15 -119 c0
-18 -5 -25 -20 -25 -21 0 -24 8 -14 34 10 25 34 19 34 -9z"/>
<path d="M6856 8303 c-11 -52 -36 -233 -36 -258 0 -32 28 -34 35 -2 2 12 12
74 20 137 9 63 18 123 21 133 4 12 0 17 -15 17 -13 0 -21 -9 -25 -27z"/>
<path d="M6936 8321 c-4 -6 -16 -74 -27 -152 -17 -117 -18 -143 -7 -150 18
-12 45 -11 67 1 63 33 81 300 21 300 -10 0 -25 3 -33 6 -8 3 -18 1 -21 -5z
m48 -127 c0 -67 -11 -104 -31 -104 -13 0 -15 8 -9 57 9 80 17 104 30 100 6 -2
11 -25 10 -53z"/>
<path d="M7075 8298 c-2 -7 -11 -65 -20 -128 -9 -63 -18 -127 -21 -141 -4 -23
-1 -27 27 -33 48 -9 73 12 92 81 20 70 22 182 5 205 -18 22 -77 34 -83 16z
m53 -103 c6 -47 -8 -116 -24 -122 -24 -9 -25 0 -13 81 12 78 31 98 37 41z"/>
<path d="M7216 8268 c-11 -51 -36 -231 -36 -257 0 -26 4 -29 42 -35 45 -7 58
2 58 42 0 17 -7 24 -30 29 -16 3 -30 8 -30 12 1 16 17 29 40 32 21 3 25 9 25
39 0 29 -4 36 -23 38 -36 5 -24 36 16 40 29 3 32 6 32 36 0 29 -4 34 -31 40
-50 10 -58 7 -63 -16z"/>
<path d="M7346 8258 c-8 -26 -36 -234 -36 -265 0 -22 5 -33 15 -33 10 0 16 16
21 50 9 70 20 70 28 0 5 -42 11 -60 21 -60 17 0 20 11 40 155 8 61 17 120 20
133 4 17 1 22 -14 22 -21 0 -31 -18 -31 -58 0 -15 -5 -34 -10 -42 -7 -11 -10
-8 -10 16 0 53 -12 94 -27 94 -7 0 -15 -6 -17 -12z"/>
<path d="M7552 8155 c-23 -47 -44 -101 -48 -120 -6 -33 -5 -35 25 -41 26 -6
31 -11 31 -35 0 -39 22 -37 39 4 26 60 30 81 20 93 -6 8 -6 33 1 75 14 93 13
109 -9 109 -13 0 -30 -23 -59 -85z m24 -71 c-4 -9 -9 -15 -11 -12 -3 3 -3 13
1 22 4 9 9 15 11 12 3 -3 3 -13 -1 -22z"/>
<path d="M7690 8198 c-36 -60 -51 -259 -20 -278 44 -28 78 21 95 136 18 121 7
174 -36 174 -11 0 -28 -14 -39 -32z m42 -101 c-5 -64 -16 -100 -32 -105 -10
-4 -12 8 -7 59 7 75 15 101 31 96 7 -2 10 -22 8 -50z"/>
<path d="M7816 8194 c-12 -32 -6 -54 14 -54 20 0 28 -24 11 -34 -4 -3 -11 -20
-15 -38 -5 -26 -2 -36 14 -48 14 -10 19 -22 14 -33 -8 -21 -23 -22 -30 -2 -4
8 -15 15 -25 15 -26 0 -26 -59 0 -91 19 -23 21 -23 48 -9 37 21 60 98 45 148
-8 27 -8 41 2 61 8 14 17 40 20 57 6 27 4 32 -16 38 -41 11 -76 7 -82 -10z"/>
<path d="M7986 8063 c-9 -70 -20 -140 -23 -155 -4 -23 -2 -28 15 -28 18 0 22
8 28 50 6 47 8 50 35 50 17 0 29 5 29 13 0 6 3 22 6 35 5 19 2 22 -20 22 -22
0 -26 4 -26 30 0 26 3 30 29 30 29 0 41 14 41 51 0 12 -7 19 -19 19 -10 0 -32
3 -48 6 l-29 6 -18 -129z"/>
<path d="M8141 8144 c-34 -43 -56 -191 -38 -256 10 -37 59 -40 82 -4 22 33 47
173 40 221 -10 69 -47 86 -84 39z m41 -114 c-4 -59 -17 -100 -31 -100 -17 0
-20 30 -10 87 13 67 17 76 32 70 8 -3 11 -23 9 -57z"/>
<path d="M8266 8123 c-21 -106 -37 -266 -28 -275 16 -16 32 0 32 35 0 58 17
64 25 9 6 -48 27 -73 41 -51 3 5 3 32 -1 59 -5 35 -3 54 9 72 8 12 18 47 22
75 9 69 -11 103 -60 103 -30 0 -35 -4 -40 -27z m59 -53 c10 -16 -5 -50 -21
-50 -15 0 -18 18 -8 44 7 18 20 21 29 6z"/>
<path d="M8406 8108 c-19 -112 -36 -231 -36 -252 0 -21 6 -26 36 -32 54 -10
74 16 85 108 5 40 11 93 14 118 8 55 -6 75 -57 84 -36 6 -37 6 -42 -26z m58
-57 c10 -15 -5 -40 -20 -34 -18 7 -18 43 0 43 8 0 17 -4 20 -9z m-14 -131 c0
-13 -7 -20 -20 -20 -22 0 -23 1 -14 24 9 23 34 20 34 -4z"/>
<path d="M8546 8088 c-41 -252 -43 -281 -19 -276 14 3 21 29 39 148 12 80 20
148 17 153 -11 19 -33 4 -37 -25z"/>
<path d="M8607 8009 c-9 -57 -19 -127 -23 -155 l-6 -51 33 -5 c53 -8 83 30 99
121 13 76 9 156 -7 172 -5 5 -26 12 -45 15 l-35 6 -16 -103z m66 -48 c-1 -59
-14 -91 -35 -91 -10 0 -4 83 9 138 11 46 28 15 26 -47z"/>
<path d="M8765 8078 c-2 -7 -11 -65 -20 -128 -8 -63 -18 -127 -21 -142 -5 -27
-5 -28 41 -28 45 0 46 1 67 48 15 33 23 74 26 138 4 87 3 92 -19 108 -28 19
-68 21 -74 4z m58 -81 c5 -14 -7 -101 -18 -129 -4 -10 -14 -18 -22 -18 -12 0
-14 7 -10 29 3 15 9 51 13 80 6 49 25 68 37 38z"/>
<path d="M8907 8053 c-10 -35 -41 -282 -37 -287 3 -2 25 -6 50 -7 l45 -4 3 38
c3 34 1 37 -22 37 -21 0 -26 5 -26 25 0 22 4 25 28 23 25 -3 27 0 30 35 3 34
1 37 -22 37 -19 0 -26 5 -26 20 0 16 7 20 34 20 30 0 34 3 38 30 6 38 -7 50
-53 50 -27 0 -39 -5 -42 -17z"/>
<path d="M9036 8038 c-10 -50 -36 -238 -36 -262 0 -16 6 -26 14 -26 16 0 26
21 26 58 0 15 5 34 10 42 7 11 10 8 10 -16 0 -80 31 -128 45 -71 12 46 43 272
38 280 -2 4 -10 7 -17 7 -15 0 -26 -30 -26 -72 0 -15 -4 -30 -10 -33 -6 -4
-10 8 -10 29 0 67 -34 115 -44 64z"/>
<path d="M6487 7947 c-15 -20 -27 -39 -27 -42 0 -4 35 -4 78 0 42 4 87 7 99 8
12 1 25 5 29 10 4 4 27 7 50 7 72 0 58 17 -24 29 -190 26 -175 27 -205 -12z"/>
<path d="M6923 7923 c4 -6 -1 -14 -11 -18 -9 -3 -17 -5 -17 -4 0 1 -10 -3 -22
-10 -13 -6 -23 -17 -23 -23 0 -9 3 -9 12 0 15 15 32 16 23 2 -14 -22 12 -7 33
20 16 20 19 31 11 36 -7 4 -9 3 -6 -3z"/>
<path d="M6844 7909 c16 -4 35 -5 43 -1 7 5 -5 8 -30 9 -38 1 -39 0 -13 -8z"/>
<path d="M6776 7901 c17 -4 36 -11 42 -15 6 -3 13 -2 16 3 3 5 -8 11 -25 15
-43 8 -71 6 -33 -3z"/>
<path d="M6795 7870 c3 -5 10 -10 16 -10 5 0 9 5 9 10 0 6 -7 10 -16 10 -8 0
-12 -4 -9 -10z"/>
<path d="M7982 7735 c0 -16 2 -22 5 -12 2 9 2 23 0 30 -3 6 -5 -1 -5 -18z"/>
<path d="M4037 7714 c-10 -11 -9 -26 2 -20 5 4 11 0 14 -6 2 -7 7 -10 11 -7 3
3 0 13 -7 23 -7 9 -16 14 -20 10z"/>
<path d="M6462 7676 l-202 -31 -95 -124 c-94 -123 -107 -145 -82 -136 6 2 102
18 211 35 110 17 201 32 201 33 1 1 43 56 93 122 88 116 101 136 85 134 -5 -1
-99 -15 -211 -33z"/>
<path d="M8762 6858 l3 -832 73 -44 72 -44 155 89 154 88 1 757 0 757 -42 5
c-24 4 -125 17 -225 31 -100 14 -185 25 -188 25 -3 0 -4 -374 -3 -832z"/>
<path d="M4080 7606 c0 -2 8 -10 18 -17 15 -13 16 -12 3 4 -13 16 -21 21 -21
13z"/>
<path d="M6235 7189 c-22 -4 -76 -12 -120 -18 -44 -6 -105 -16 -135 -21 -30
-6 -67 -11 -82 -13 -19 -2 -38 -18 -64 -52 -21 -26 -32 -45 -26 -41 7 4 20 9
29 11 113 26 213 48 233 51 191 27 192 28 221 77 11 19 8 20 -56 6z"/>
<path d="M5675 7001 c-3 -5 -2 -12 3 -15 5 -3 9 1 9 9 0 17 -3 19 -12 6z"/>
<path d="M5628 6913 c7 -3 16 -2 19 1 4 3 -2 6 -13 5 -11 0 -14 -3 -6 -6z"/>
<path d="M5455 6820 c-3 -6 1 -7 9 -4 18 7 21 14 7 14 -6 0 -13 -4 -16 -10z"/>
<path d="M5300 6760 c-9 -6 -10 -10 -3 -10 6 0 15 5 18 10 8 12 4 12 -15 0z"/>
<path d="M4985 6680 c-3 -6 1 -7 9 -4 18 7 21 14 7 14 -6 0 -13 -4 -16 -10z"/>
<path d="M5092 6583 c-24 -24 -24 -25 -2 -8 42 33 44 35 37 35 -4 0 -19 -12
-35 -27z"/>
<path d="M4945 6471 c3 -5 -7 -19 -21 -30 -15 -12 -23 -21 -19 -21 4 0 20 11
36 24 22 19 25 25 13 30 -8 3 -13 2 -9 -3z"/>
<path d="M4883 6405 c0 -8 4 -12 9 -9 5 3 6 10 3 15 -9 13 -12 11 -12 -6z"/>
<path d="M4849 6363 c-13 -16 -12 -17 4 -4 9 7 17 15 17 17 0 8 -8 3 -21 -13z"/>
<path d="M4790 6299 c0 -5 5 -7 10 -4 6 3 10 8 10 11 0 2 -4 4 -10 4 -5 0 -10
-5 -10 -11z"/>
<path d="M4751 6256 l-24 -31 28 27 c16 15 27 29 24 31 -2 3 -15 -10 -28 -27z"/>
<path d="M4655 6229 c-4 -6 -5 -12 -2 -15 2 -3 7 2 10 11 7 17 1 20 -8 4z"/>
<path d="M4706 6204 c-23 -23 -20 -30 4 -9 11 10 20 20 20 22 0 7 -9 2 -24
-13z"/>
<path d="M4456 6183 c-6 -14 -5 -15 5 -6 7 7 10 15 7 18 -3 3 -9 -2 -12 -12z"/>
<path d="M5281 6139 c-172 -27 -201 -33 -190 -43 2 -2 80 -9 173 -17 l169 -13
27 32 c29 35 46 42 36 15 -5 -15 -4 -15 9 1 8 11 15 25 15 30 0 6 -5 4 -10 -4
-5 -8 -10 -10 -10 -4 0 5 5 15 12 22 18 18 -18 15 -231 -19z"/>
<path d="M4655 6151 c-3 -5 -2 -12 3 -15 5 -3 9 1 9 9 0 17 -3 19 -12 6z"/>
<path d="M4595 6069 c-4 -6 -4 -13 -1 -16 3 -4 6 -1 6 6 0 7 5 9 12 5 7 -4 8
-3 4 4 -9 15 -13 15 -21 1z"/>
<path d="M4411 5794 c0 -11 3 -14 6 -6 3 7 2 16 -1 19 -3 4 -6 -2 -5 -13z"/>
<path d="M4465 5799 c-4 -6 -5 -12 -2 -15 2 -3 7 2 10 11 7 17 1 20 -8 4z"/>
<path d="M4415 5649 c-4 -6 -5 -12 -2 -15 2 -3 7 2 10 11 7 17 1 20 -8 4z"/>
<path d="M4833 5468 c-90 -22 -163 -43 -163 -47 0 -11 182 -31 223 -24 34 5
78 46 111 101 9 15 19 17 -171 -30z"/>
<path d="M5030 5069 c-48 -94 -158 -252 -200 -286 -11 -9 -12 -12 -2 -13 35
-1 172 -113 198 -162 13 -26 12 -28 -46 -87 -145 -147 -452 -232 -733 -203
-236 25 -437 110 -532 226 -29 36 -34 49 -27 63 12 22 106 111 142 135 l25 16
-26 28 c-58 63 -156 203 -179 257 -14 31 -28 57 -31 57 -19 0 -115 -90 -154
-144 -58 -82 -64 -98 -86 -256 -23 -171 -25 -450 -3 -644 41 -375 151 -756
276 -962 133 -221 400 -334 753 -321 264 10 468 89 597 232 108 120 219 401
287 727 53 255 65 370 65 638 1 394 -29 523 -151 645 -31 31 -76 70 -99 86
l-43 29 -31 -61z"/>
</g>
</svg>
